<svg height="512" viewBox="0 0 64 64" width="512" xmlns="http://www.w3.org/2000/svg"><path d="m9 28h53v23h-53z" fill="#e0e0e2"/><path d="m18 35h10v15h-10z" fill="#57565c"/><path d="m34 35h7v7h-7z" fill="#c2dff6"/><path d="m45 35h7v7h-7z" fill="#83d8f4"/><path d="m59 7v21h-44v-5h39v-11h-39v-5z" fill="#acabb1"/><path d="m19 12h35v11h-35z" fill="#c2dff6"/><path d="m62 53a1 1 0 0 0 -1 1v1h-51v-1a1 1 0 0 0 -2 0v4a1 1 0 0 0 2 0v-1h51v1a1 1 0 0 0 2 0v-4a1 1 0 0 0 -1-1z"/><path d="m6 8a1 1 0 0 0 0-2h-4a1 1 0 0 0 0 2h1v42h-1a1 1 0 0 0 0 2h4a1 1 0 0 0 0-2h-1v-42z"/><path d="m62 27h-2v-20a1 1 0 0 0 -1-1h-44a1 1 0 0 0 -1 1v5a1 1 0 0 0 1 1h3v9h-3a1 1 0 0 0 -1 1v4h-5a1 1 0 0 0 -1 1v23a1 1 0 0 0 1 1h53a1 1 0 0 0 1-1v-23a1 1 0 0 0 -1-1zm-42-14h33v9h-33zm-4 11h38a1 1 0 0 0 1-1v-11a1 1 0 0 0 -1-1h-38v-3h42v19h-42zm3 25v-13h8v13zm42 1h-32v-15a1 1 0 0 0 -1-1h-10a1 1 0 0 0 -1 1v15h-7v-21h51z"/><path d="m41 34h-7a1 1 0 0 0 -1 1v7a1 1 0 0 0 1 1h7a1 1 0 0 0 1-1v-7a1 1 0 0 0 -1-1zm-1 7h-5v-5h5z"/><path d="m52 34h-7a1 1 0 0 0 -1 1v7a1 1 0 0 0 1 1h7a1 1 0 0 0 1-1v-7a1 1 0 0 0 -1-1zm-1 7h-5v-5h5z"/><path d="m30 14h-8a1 1 0 0 0 0 2h8a1 1 0 0 0 0-2z"/><path d="m34 14h-1a1 1 0 0 0 0 2h1a1 1 0 0 0 0-2z"/></svg>