<svg id="Capa_1" enable-background="new 0 0 512 512" height="512" viewBox="0 0 512 512" width="512" xmlns="http://www.w3.org/2000/svg"><g><g><path d="m491.545 37.145h-403.213c-7.137 0-12.976 5.839-12.976 12.976v81.476h380.27c7.137 0 12.976 5.839 12.976 12.976v146.137h22.943c7.137 0 12.976-5.839 12.976-12.976v-227.613c-.001-7.137-5.839-12.976-12.976-12.976z" fill="#00ba66"/><g><path d="m125.332 37.145h-37c-7.137 0-12.976 5.839-12.976 12.976v81.476h37v-81.476c.001-7.137 5.839-12.976 12.976-12.976z" fill="#01a755"/></g><path d="m366.554 129.596c-13.126-29.247-42.481-49.628-76.615-49.628s-63.489 20.382-76.616 49.628z" fill="#6ed6a2"/><path d="m313.449 83.32c-7.461-2.174-15.346-3.352-23.51-3.352-34.134 0-63.489 20.382-76.616 49.628h47.021c9.987-22.251 29.373-39.36 53.105-46.276z" fill="#6ec186"/><path d="m491.545 37.145h-70.984c0 46.37 37.59 83.96 83.96 83.96v-70.984c-.001-7.137-5.839-12.976-12.976-12.976z" fill="#6ed6a2"/><path d="m468.602 213.908v76.802h22.943c7.137 0 12.976-5.839 12.976-12.976v-70.984c-12.075.001-25.544 2.569-35.919 7.158z" fill="#6ed6a2"/><path d="m88.332 37.145h70.984c0 46.37-37.59 83.96-83.96 83.96v-70.984c.001-7.137 5.84-12.976 12.976-12.976z" fill="#6ed6a2"/><path d="m112.357 50.121c0-7.137 5.839-12.976 12.976-12.976h-37c-7.136 0-12.976 5.839-12.976 12.976v70.984c13.282 0 25.836-3.096 37-8.587z" fill="#6ec186"/><path d="m457.627 129.596h-403.213c-7.137 0-12.976 5.839-12.976 12.976v81.476h50.042 261.245 68.984c7.137 0 12.976 5.836 12.976 12.976v146.138h22.943c7.137 0 12.976-5.839 12.976-12.976v-227.614c-.002-7.137-5.841-12.976-12.977-12.976z" fill="#00ba66"/><g><path d="m91.414 129.596h-37c-7.136 0-12.976 5.839-12.976 12.976v81.476h37v-81.476c0-7.137 5.839-12.976 12.976-12.976z" fill="#01a755"/></g><path d="m332.636 224.048c-13.126-29.247-42.481-51.628-76.615-51.628s-63.489 22.382-76.616 51.628z" fill="#6ed6a2"/><path d="m279.531 176.06c-7.461-2.348-15.346-3.641-23.51-3.641-34.134 0-63.489 22.382-76.616 51.628h47.021c9.986-22.251 29.372-40.516 53.105-47.987z" fill="#6ec186"/><path d="m457.627 129.597h-70.984c0 46.37 37.59 83.96 83.96 83.96v-70.984c-.001-7.138-5.84-12.976-12.976-12.976z" fill="#6ed6a2"/><path d="m434.684 306.359v76.802h22.943c7.137 0 12.976-5.839 12.976-12.976v-70.984c-12.075.001-25.544 2.569-35.919 7.158z" fill="#6ed6a2"/><path d="m54.414 129.597h70.984c0 46.37-37.59 83.96-83.96 83.96v-70.984c0-7.138 5.839-12.976 12.976-12.976z" fill="#6ed6a2"/><path d="m78.439 142.572c0-7.137 5.839-12.976 12.976-12.976h-37c-7.137 0-12.976 5.839-12.976 12.976v70.984c13.281 0 25.836-3.096 37-8.587z" fill="#6ec186"/><path d="m423.709 222.048h-403.213c-7.137 0-12.976 5.839-12.976 12.976v227.614c0 7.137 5.839 12.976 12.976 12.976h403.213c7.137 0 12.976-5.839 12.976-12.976v-227.615c-.001-7.136-5.84-12.975-12.976-12.975z" fill="#00ba66"/><path d="m44.52 462.637v-227.614c0-7.137 5.839-12.976 12.976-12.976h-37c-7.137 0-12.976 5.839-12.976 12.976v227.614c0 7.137 5.839 12.976 12.976 12.976h37c-7.137-.001-12.976-5.839-12.976-12.976z" fill="#01a755"/><circle cx="222.102" cy="348.83" fill="#6ed6a2" r="83.96"/><path d="m175.142 348.83c0-40.01 27.995-73.46 65.46-81.89-5.955-1.34-12.141-2.07-18.5-2.07-46.37 0-83.96 37.59-83.96 83.96s37.59 83.96 83.96 83.96c6.359 0 12.545-.73 18.5-2.07-37.464-8.43-65.46-41.88-65.46-81.89z" fill="#6ec186"/><path d="m423.709 222.048h-70.984c0 46.37 37.59 83.96 83.96 83.96v-70.984c-.001-7.137-5.84-12.976-12.976-12.976z" fill="#6ed6a2"/><path d="m423.709 475.613h-70.984c0-46.37 37.59-83.96 83.96-83.96v70.984c-.001 7.137-5.84 12.976-12.976 12.976z" fill="#6ed6a2"/><g fill="#6ec186"><path d="m456.498 37.145h-35.937c0 46.37 37.59 83.96 83.959 83.96v-8.07c-28.387-13.467-48.022-42.381-48.022-75.89z"/><path d="m422.58 129.596h-35.937c0 46.37 37.59 83.96 83.96 83.96v-8.07c-28.388-13.467-48.023-42.381-48.023-75.89z"/><path d="m388.662 222.048h-35.938c0 46.37 37.59 83.96 83.96 83.96v-8.07c-28.387-13.468-48.022-42.382-48.022-75.89z"/><path d="m436.684 399.723v-8.07c-46.37 0-83.96 37.59-83.96 83.96h35.938c0-33.509 19.635-62.423 48.022-75.89z"/></g><path d="m20.496 222.048h70.984c0 46.37-37.59 83.96-83.96 83.96v-70.984c0-7.137 5.839-12.976 12.976-12.976z" fill="#6ed6a2"/><path d="m44.52 235.023c0-7.137 5.839-12.976 12.976-12.976h-37c-7.137 0-12.976 5.839-12.976 12.976v70.984c13.282 0 25.836-3.096 37-8.587z" fill="#6ec186"/><path d="m20.496 475.613h70.984c0-46.37-37.59-83.96-83.96-83.96v70.984c0 7.137 5.839 12.976 12.976 12.976z" fill="#6ed6a2"/><path d="m44.52 462.637v-62.397c-11.164-5.491-23.718-8.587-37-8.587v70.984c0 7.137 5.839 12.976 12.976 12.976h37c-7.137-.001-12.976-5.839-12.976-12.976z" fill="#6ec186"/></g><g><path d="m219.809 402.831h3.58c1.808 0 3.274-1.466 3.274-3.274v-3.442c0-.552.402-1.017.945-1.117 16.756-3.059 24.778-13.783 24.778-27.886 0-16.397-12.191-22.664-24.947-27.5-.467-.177-.776-.622-.776-1.122v-23.03c0-.365.322-.655.686-.623 4.773.424 7.299 1.283 11.613 3.517 1.797.931 3.091 1.602 4.546 1.602 4.55 0 6.388-6.461 6.388-9.155 0-7.422-14.281-9.459-22.291-9.83-.527-.025-.942-.454-.942-.982v-2.955c0-1.808-1.466-3.274-3.274-3.274h-3.58c-1.808 0-3.274 1.466-3.274 3.274v3.567c0 .481-.346.886-.82.969-8.321 1.453-24.389 6.72-24.389 25.695 0 15.803 13.415 21.541 24.838 25.912.226.087.372.302.372.543v25.517c0 .578-.533 1.024-1.097.9-5.07-1.114-8.645-3.471-12.614-6.312-2.562-1.834-4.775-3.418-6.771-3.418-3.915 0-7.218 5.793-7.218 9.432 0 7.527 12.518 14.817 26.626 15.724.602.039 1.073.527 1.073 1.13v2.863c0 1.809 1.465 3.275 3.274 3.275zm6.854-44.473c0-.431.455-.719.841-.526 4.967 2.48 9.062 5.845 9.062 11.494 0 5.044-3.076 8.714-8.698 10.455-.596.184-1.206-.249-1.206-.873v-20.55zm-11.854-23.583c-4.1-2.038-7.664-4.862-7.664-9.583 0-4.35 3.17-7.767 8.589-9.393.396-.119.8.19.8.604v17.287c.001.888-.931 1.48-1.725 1.085z"/><path d="m491.524 29.267c-8.773 0-175.167 0-184.105 0-4.143 0-7.5 3.358-7.5 7.5s3.357 7.5 7.5 7.5h105.931c3.626 44.462 39.188 80.024 83.65 83.65v71.261c-6.439.523-12.76 1.723-18.918 3.588v-60.572c0-11.291-9.186-20.476-20.476-20.476h-86.379c-15.609-30.3-46.994-49.628-81.308-49.628-34.313 0-65.7 19.329-81.309 49.628h-99.392c31.493-12.605 54.397-42.237 57.269-77.451h105.932c4.143 0 7.5-3.358 7.5-7.5s-3.357-7.5-7.5-7.5c-8.827 0-175.311 0-184.106 0-11.287 0-20.476 9.182-20.476 20.476v70.984.991h-13.442c-11.29 0-20.476 9.186-20.476 20.476v70.984.991h-13.443c-11.29-.001-20.476 9.184-20.476 20.476v227.613c0 11.29 9.185 20.476 20.476 20.476h403.213c11.287 0 20.476-9.182 20.476-20.476 0-6.284 0-65.179 0-71.976h13.442c11.287 0 20.476-9.182 20.476-20.476 0-6.284 0-65.179 0-71.976h13.442c11.287 0 20.476-9.182 20.476-20.476 0-11.818 0-218.674 0-227.613-.001-11.289-9.186-20.474-20.477-20.474zm-201.605 57.822c26.004 0 50.005 13.273 63.987 34.628h-127.975c13.983-21.354 37.985-34.628 63.988-34.628zm-207.082-37.347c0-3.019 2.456-5.476 5.476-5.476h63.118c-3.538 36.187-32.407 65.057-68.594 68.595zm-33.918 92.451c0-3.019 2.456-5.476 5.476-5.476h63.118c-3.538 36.187-32.407 65.057-68.594 68.595zm-33.919 92.452c0-3.019 2.456-5.476 5.476-5.476h63.119c-3.539 36.187-32.408 65.056-68.595 68.595zm5.476 233.088c-3.02 0-5.476-2.457-5.476-5.476v-63.119c36.188 3.538 65.057 32.408 68.595 68.595zm408.688-5.475c0 3.019-2.456 5.476-5.476 5.476h-63.119c3.538-36.187 32.407-65.057 68.595-68.595zm0-78.175c-44.462 3.626-80.024 39.188-83.651 83.65h-246.862c-3.626-44.462-39.188-80.024-83.651-83.65v-71.264c44.462-3.626 80.024-39.188 83.651-83.65h246.863c3.626 44.462 39.189 80.024 83.651 83.65-.001 18.777-.001 65.286-.001 71.264zm-237.151-169.915c13.982-21.354 37.984-34.628 63.988-34.628 26.003 0 50.004 13.273 63.987 34.628zm237.151 20.477v63.119c-36.187-3.539-65.056-32.407-68.595-68.595h63.119.01c2.986.005 5.466 2.475 5.466 5.474zm33.918 135.162c0 3.019-2.456 5.476-5.476 5.476h-13.442v-64.255c6.112-2.259 12.44-3.711 18.918-4.342zm0-79.476v1.298c-6.44.523-12.76 1.723-18.918 3.587v-60.572c0-11.272-9.253-20.476-20.476-20.476-9.285 0-76.596 0-86.379 0-15.61-30.3-46.996-49.628-81.308-49.628-34.314 0-65.701 19.328-81.309 49.628-11.765 0-87.829 0-99.392 0 31.493-12.605 54.397-42.237 57.269-77.451h246.864c3.626 44.462 39.188 80.024 83.65 83.65v69.964zm0-85.018c-36.187-3.538-65.056-32.408-68.594-68.595h63.118c3.02 0 5.476 2.457 5.476 5.476zm33.918 72.042c0 3.019-2.456 5.476-5.476 5.476h-13.442v-64.255c6.113-2.259 12.44-3.711 18.918-4.342zm0-164.494c-36.187-3.538-65.056-32.408-68.594-68.595h63.118c3.02 0 5.476 2.457 5.476 5.476z"/><path d="m296.913 332.708c.849 4.054 4.824 6.655 8.877 5.805 4.055-.848 6.653-4.823 5.805-8.877-8.808-42.093-46.453-72.645-89.513-72.645-50.431 0-91.459 41.029-91.459 91.46s41.028 91.46 91.459 91.46c43.655 0 80.501-30.751 89.402-72.163.87-4.05-1.707-8.038-5.757-8.909-4.046-.873-8.038 1.706-8.909 5.756-7.512 34.949-38.942 60.315-74.736 60.315-42.159 0-76.459-34.3-76.459-76.46s34.3-76.46 76.459-76.46c35.998.001 67.47 25.536 74.831 60.718z"/></g></g></svg>