<svg height="496pt" viewBox="0 0 496 496" width="496pt" xmlns="http://www.w3.org/2000/svg"><path d="m488 248c0 132.546875-107.453125 240-240 240s-240-107.453125-240-240 107.453125-240 240-240 240 107.453125 240 240zm0 0" fill="#85d3c1"/><path d="m400 432h-306.078125c15.117187 12.71875 31.917969 23.601562 49.917969 32.320312l.160156-.320312h208l.160156.238281c17.519532-8.476562 33.917969-18.957031 48.71875-31.277343zm0 0" fill="#f5f7fa"/><path d="m280 400c0 17.671875-14.328125 32-32 32s-32-14.328125-32-32 14.328125-32 32-32 32 14.328125 32 32zm0 0" fill="#f9d48a"/><path d="m120 400c0 17.671875-14.328125 32-32 32s-32-14.328125-32-32 14.328125-32 32-32 32 14.328125 32 32zm0 0" fill="#f9d48a"/><path d="m23.039062 331.761719 35.601563-10.242188c3.4375-.960937 6.480469-3.121093 8.640625-6.078125l31.917969-44.722656c3.039062-4.238281 7.839843-6.71875 13.039062-6.71875h111.523438c5.199219 0 10 2.480469 13.039062 6.71875l31.917969 44.722656c2.160156 2.957032 5.203125 5.117188 8.640625 6.078125l39.039063 11.199219c6.882812 1.921875 11.601562 8.242188 11.601562 15.359375v35.921875c0 8.800781-7.199219 16-16 16h-32c0-17.679688-14.320312-32-32-32s-32 14.320312-32 32h-96c0-17.679688-14.320312-32-32-32s-32 14.320312-32 32h-32c-8.800781 0-16-7.199219-16-16v-35.921875c0-7.117187 4.71875-13.4375 11.601562-15.359375zm0 0" fill="#ff958a"/><path d="m208 296 24 32h-128l24-32zm0 0" fill="#f5f7fa"/><path d="m425.519531 409.441406c-7.597656 8.398438-15.839843 16.320313-24.640625 23.519532l-.878906-.960938h-40v-64h64v40zm0 0" fill="#f9d48a"/><path d="m408 200v168h-32v-168l.238281-1.28125c5.121094.882812 10.402344 1.28125 15.761719 1.28125s10.640625-.398438 15.761719-1.28125zm0 0" fill="#f5f7fa"/><path d="m488 104c0 21.601562-7.039062 41.441406-19.039062 57.519531-14.5625 19.359375-36.242188 33.039063-61.199219 37.199219-5.121094.882812-10.402344 1.28125-15.761719 1.28125s-10.640625-.398438-15.761719-1.28125c-45.519531-7.519531-80.238281-47.039062-80.238281-94.71875 0-32.398438 16.078125-61.121094 40.640625-78.398438 15.597656-11.121093 34.71875-17.601562 55.359375-17.601562 53.039062 0 96 42.960938 96 96zm0 0" fill="#f9d48a"/><path d="m456 104c0 14.800781-5.039062 28.398438-13.519531 39.199219l-11.28125 11.28125c-10.800781 8.480469-24.398438 13.519531-39.199219 13.519531-35.359375 0-64-28.640625-64-64 0-14.800781 5.039062-28.398438 13.519531-39.199219l11.28125-11.28125c10.800781-8.480469 24.398438-13.519531 39.199219-13.519531 35.359375 0 64 28.640625 64 64zm0 0" fill="#f5f7fa"/><g fill="#232323"><path d="m368 72v72h16v-24h16c13.230469 0 24-10.769531 24-24s-10.769531-24-24-24zm40 24c0 4.40625-3.59375 8-8 8h-16v-16h16c4.40625 0 8 3.59375 8 8zm0 0"/><path d="m392 176c16.089844 0 31.335938-5.246094 44.113281-15.167969l-9.816406-12.632812c-9.9375 7.722656-21.800781 11.800781-34.296875 11.800781-30.878906 0-56-25.121094-56-56 0-12.496094 4.078125-24.359375 11.800781-34.296875l-12.632812-9.816406c-9.921875 12.777343-15.167969 28.023437-15.167969 44.113281 0 39.695312 32.304688 72 72 72zm0 0"/><path d="m392 48c30.878906 0 56 25.121094 56 56 0 12.496094-4.078125 24.359375-11.800781 34.296875l12.632812 9.816406c9.921875-12.777343 15.167969-28.023437 15.167969-44.113281 0-39.695312-32.304688-72-72-72-16.089844 0-31.335938 5.246094-44.113281 15.167969l9.816406 12.632812c9.9375-7.722656 21.800781-11.800781 34.296875-11.800781zm0 0"/><path d="m496 104c0-57.34375-46.65625-104-104-104-20.464844 0-39.503906 6.023438-55.617188 16.265625-28.191406-10.761719-57.910156-16.265625-88.382812-16.265625-136.742188 0-248 111.257812-248 248 0 27.0625 4.320312 53.550781 12.824219 78.902344-7.71875 4.097656-12.824219 12.195312-12.824219 21.167968v35.929688c0 13.230469 10.769531 24 24 24h24.808594c3.71875 18.230469 19.871094 32 39.191406 32h3.097656c44.148438 36.113281 99.726563 56 156.902344 56 136.742188 0 248-111.257812 248-248 0-30.472656-5.480469-60.214844-16.246094-88.425781 10.230469-16.09375 16.246094-35.125 16.246094-55.574219zm-16 0c0 48.519531-39.480469 88-88 88s-88-39.480469-88-88 39.480469-88 88-88 88 39.480469 88 88zm-96 256v-152.40625c2.648438.207031 5.296875.40625 8 .40625s5.351562-.199219 8-.40625v152.40625zm-136-344c25.183594 0 49.808594 4.007812 73.382812 11.871094-20.480468 19-33.382812 46.058594-33.382812 76.128906 0 49.070312 34.207031 90.214844 80 101.097656v154.902344h-16v64h-72.207031c3.535156-4.671875 6.183593-10.054688 7.390625-16h24.816406c13.230469 0 24-10.769531 24-24v-35.929688c0-10.65625-7.160156-20.148437-17.40625-23.078124l-39.027344-11.152344c-1.726562-.496094-3.253906-1.566406-4.300781-3.039063l-31.96875-44.753906c-4.496094-6.285156-11.800781-10.046875-19.527344-10.046875h-111.539062c-7.726563 0-15.03125 3.761719-19.527344 10.046875l-31.960937 44.753906c-1.046876 1.472657-2.582032 2.550781-4.316407 3.046875l-28.378906 8.113282c-7.992187-23.761719-12.046875-48.585938-12.046875-73.960938 0-127.929688 104.070312-232 232-232zm-120.808594 392h81.617188c1.214844 5.945312 3.855468 11.328125 7.390625 16h-96.40625c3.542969-4.671875 6.183593-10.054688 7.398437-16zm96.808594-8c0-13.230469 10.769531-24 24-24s24 10.769531 24 24-10.769531 24-24 24-24-10.769531-24-24zm-24 40v16h-48v-16zm16 0h64v16h-64zm80 0h48v16h-48zm64 0h18.078125c-5.839844 3.96875-11.878906 7.65625-18.078125 11.089844zm-311.191406-48h-24.808594c-4.40625 0-8-3.59375-8-8v-35.929688c0-3.550781 2.382812-6.71875 5.808594-7.695312l39.007812-11.144531c5.199219-1.488281 9.792969-4.71875 12.945313-9.132813l31.957031-44.746094c1.503906-2.09375 3.9375-3.351562 6.511719-3.351562h111.53125c2.574219 0 5.007812 1.257812 6.503906 3.34375l31.964844 44.753906c3.152343 4.40625 7.746093 7.644532 12.9375 9.125l39.015625 11.152344c3.433594.976562 5.816406 4.136719 5.816406 7.695312v35.929688c0 4.40625-3.59375 8-8 8h-24.808594c-3.71875-18.230469-19.871094-32-39.191406-32s-35.472656 13.769531-39.191406 32h-32.808594v-16h-16v16h-32.808594c-3.71875-18.230469-19.871094-32-39.191406-32s-35.472656 13.769531-39.191406 32zm15.191406 8c0-13.230469 10.769531-24 24-24s24 10.769531 24 24-10.769531 24-24 24-24-10.769531-24-24zm72 40v11.007812c-6.160156-3.398437-12.183594-7.054687-18.03125-11.007812zm51.6875 32h120.625c-19.25 5.183594-39.457031 8-60.3125 8-20.496094 0-40.769531-2.734375-60.3125-8zm211.214844-48h-30.902344v-48h48v31.753906c-5.425781 5.695313-11.128906 11.117188-17.097656 16.246094zm81.097656-176c0 53.039062-17.9375 101.953125-48 141.070312v-29.070312h-16v-154.902344c20.351562-4.832031 38.367188-15.640625 52.152344-30.496094 7.863281 23.574219 11.847656 48.214844 11.847656 73.398438zm0 0"/><path d="m80 392h16v16h-16zm0 0"/><path d="m240 392h16v16h-16zm0 0"/><path d="m160 360h16v-24h72l-36-48h-88l-36 48h72zm-28-56h72l12 16h-96zm0 0"/><path d="m152 176h88v-16h-88c-8.824219 0-16-7.175781-16-16s7.175781-16 16-16h16v-16h-16c-17.648438 0-32 14.351562-32 32s14.351562 32 32 32zm0 0"/><path d="m256 160h16v16h-16zm0 0"/><path d="m88 224h88v-16h-88c-8.824219 0-16-7.175781-16-16s7.175781-16 16-16h16v-16h-16c-17.648438 0-32 14.351562-32 32s14.351562 32 32 32zm0 0"/><path d="m192 208h16v16h-16zm0 0"/></g></svg>