<svg height="512pt" viewBox="0 -88 512.00032 512" width="512pt" xmlns="http://www.w3.org/2000/svg"><path d="m504.496094 27.417969c0-11.933594-9.359375-19.84375-19.160156-19.917969h-60.835938v320h52.375c14.539062 0 26.929688-11.667969 27.589844-26.75.050781-1.074219.03125-271.449219.03125-273.332031zm0 0" fill="#b66652"/><path d="m479.5 87.933594c0-43.945313-24.625-80.433594-55-80.433594s-55 36.488281-55 80.433594c0 43.941406 24.625 79.566406 55 79.566406s55-35.621094 55-79.566406zm0 0" fill="#ff5368"/><path d="m424.5 167.5c-30.375 0-55 36.488281-55 80.433594 0 43.941406 24.625 79.566406 55 79.566406s55-35.621094 55-79.566406c0-43.945313-24.625-80.433594-55-80.433594zm0 0" fill="#ec4b62"/><path d="m348.5 77.679688v179.59375c0 25.957031 14.113281 50.699218 38.832031 68.089843 4.804688 3.382813 11.832031 2.578125 15.320313-1.183593 3.148437-3.390626 4.933594-7.363282 5.742187-11.300782 2.480469-12-4.328125-16.941406-1.722656-24.558594 2.339844-6.886718 9.367187-5.765624 17.222656-14.359374 7.378907-7.96875 6.8125-18.394532-2.25-25.855469-5.777343-4.761719-4.742187-11.675781 2.398438-15.65625 14.988281-8.332031 16.449219-23.386719 3.15625-32.839844-6.347657-4.515625-5.957031-11.472656.71875-15.695313 14.101562-8.921874 14.113281-23.949218 0-32.871093-6.707031-4.246094-7.039063-11.203125-.71875-15.699219 13.292969-9.453125 11.832031-24.503906-3.15625-32.835938-7.035157-3.925781-8.253907-10.835937-2.398438-15.660156 6.0625-4.992187 8.3125-11.285156 6.953125-17.292968-1.878906-8.152344-10.648437-14.128907-14.65625-15.984376-8.863281-4.164062-8.960937-10.28125-6.433594-17.726562 3.019532-8.667969 1.136719-18.695312-4.777343-24.984375-3.78125-4.023437-10.929688-4.414063-15.398438-1.269531-25.289062 17.789062-38.832031 42.734375-38.832031 68.089844zm0 0" fill="#28d05b"/><path d="m357.496094 7.511719h-50l-60 319.988281c2.644531 0 101.59375 0 101.167968 0 15.175782 0 28.109376-11.667969 28.800782-26.746094.046875-1.078125.03125-271.441406.03125-273.324218 0-11.933594-9.769532-19.84375-20-19.917969zm0 0" fill="#b66652"/><path d="m27.539062 327.5h271.714844c16.570313 0 30-13.359375 30-29.835938v-270.234374c0-17.71875-21.542968-26.59375-34.140625-14.0625l-281.714843 280.175781c-12.597657 12.53125-3.675782 33.957031 14.140624 33.957031zm0 0" fill="#ffc98c"/><path d="m299.253906 10.175781v287.324219h-288.96875c-7.625 12.609375 1.203125 30 17.253906 30h271.714844c16.566406 0 30-13.359375 30-29.835938v-270.234374c0-15.898438-17.335937-24.664063-30-17.253907zm0 0" fill="#f7a16e"/><path d="m511.996094 29.195312v-1.777343c0-17.035157-13.523438-27.316407-26.660156-27.417969h-60.832032c-6.28125 0-12.4375 1.308594-18.375 3.878906-6.441406-4.914062-16.238281-5.253906-23.105468-.421875-2.0625 1.449219-4.070313 2.96875-6.019532 4.542969-4.941406-4.910156-11.796875-7.9296875-19.5-7.984375h-48.179687c-7.585938-.0546875-14.351563 2.925781-19.488281 8.03125l-281.699219 280.179687c-8 7.960938-10.304688 19.375-6.003907 29.792969 4.320313 10.472657 14.066407 16.980469 25.433594 16.980469h321.109375c9.992188 0 19.046875-3.925781 25.621094-10.3125 2.78125 2.386719 5.6875 4.671875 8.726563 6.808594 3.339843 2.351562 7.351562 3.492187 11.328124 3.492187 4.230469 0 8.402344-1.316406 11.695313-3.832031 5.960937 2.542969 12.144531 3.84375 18.457031 3.84375h52.371094c18.835938 0 34.246094-14.898438 35.085938-33.921875.011718-.296875.050781-1.191406.035156-271.882813zm-39.992188 58.738282c0 29.21875-12.199218 55.820312-29.808594 66.773437-2.402343-3.816406-5.875-7.230469-10.261718-10.007812-1.386719-.875-1.742188-1.613281-1.761719-1.742188.015625-.125.300781-.734375 1.378906-1.5 17.671875-12.570312 16.078125-34.421875-3.847656-45.5-1.804687-1.003906-2.265625-1.953125-2.285156-2.117187 0-.003906.105469-.464844.996093-1.199219 17.476563-14.382813 10.78125-36.574219-9.277343-45.859375-3.628907-1.699219-4.582031-2.460938-2.539063-8.472656 2.453125-7.046875 2.398438-14.785156.066406-21.652344 3.234376-1.09375 6.527344-1.65625 9.839844-1.65625 25.746094 0 47.5 33.398438 47.5 72.933594zm-123.328125 232.066406h-19.378906c4.6875-6.234375 7.464844-13.96875 7.464844-22.335938v-260.230468c0-4.144532-3.355469-7.5-7.5-7.5-4.140625 0-7.5 3.355468-7.5 7.5v260.230468c0 12.316407-10.089844 22.335938-22.496094 22.335938h-271.699219c-5.253906 0-9.578125-2.878906-11.570312-7.703125-1.964844-4.765625-.949219-9.785156 2.71875-13.4375l281.695312-280.175781c2.152344-2.140625 4.816406-3.394532 7.714844-3.636719.199219-.015625.402344-.03125.617188-.039063l.464843.003907h.058594 48.1875c6.171875.046875 12.550781 4.703125 12.550781 12.417969v1.769531c.007813 128.339843.003906 266.386719-.027344 271.324219-.558593 10.75-10.089843 19.476562-21.300781 19.476562zm42.976563-.773438c-3.164063-2.222656-6.164063-4.625-8.996094-7.148437 1.320312-3.429687 2.128906-7.117187 2.308594-10.976563.011718-.296874.054687-1.203124.039062-271.898437 0-2.125.082032-4.449219-.65625-7.808594 2.332032-1.980469 4.769532-3.882812 7.304688-5.667969 1.539062-1.082031 4.484375-.9375 5.617187.265626 3.832031 4.082031 5.335938 11.144531 3.144531 17.4375-4.292968 12.632812-.8125 21.691406 10.382813 26.949218 2.804687 1.296875 9.335937 5.832032 10.488281 10.832032.980469 4.335937-1.851562 7.75-4.40625 9.851562-9.714844 8.003906-8.410156 21.34375 3.523438 28 9.714844 5.402344 11.570312 13.6875 2.449218 20.171875-5.023437 3.578125-7.824218 8.726563-7.675781 14.117187.152344 5.5 3.335938 10.609376 8.738281 14.027344 3.976563 2.515625 6.453126 5.648438 6.976563 8.820313.660156 4.007812-1.882813 8.152343-6.976563 11.375-11.1875 7.070312-11.667968 20.597656-1.058593 28.148437 8.019531 5.699219 8.566406 13.628906-2.460938 20.175782-11.925781 6.648437-13.230469 19.984374-3.511719 28 9.011719 7.410156 3.871094 15.257812-6.644531 20.96875-3.773437 2.046874-8.46875 4.597656-10.660156 11.027343-3.613281 10.566407 3.488281 15.746094 1.472656 25.476563-.613281 2.992187-1.921875 5.585937-3.890625 7.710937-.890625.957031-3.710937 1.40625-5.507812.144531zm22.996094-.84375c.445312-1.296874.816406-2.625 1.09375-3.984374 1.6875-8.148438.007812-13.917969-1.222657-18.128907-1.761719-6.054687-1.199219-6.011719 2.871094-8.21875 24.371094-13.226562 23.242187-34.039062 9.027344-45.734375-1.339844-1.101562-1.679688-1.539062 1.734375-3.582031 8.609375-5.128906 15.140625-12.714844 15.617187-22.675781.707031-14.785156-12.3125-22.28125-13.320312-23.585938-.21875-.285156-.261719-.445312-.265625-.445312.097656-.558594 1.25-1.460938 1.746094-1.773438 4.367187-2.761718 7.792968-6.140625 10.179687-9.882812 17.65625 11.128906 29.890625 38.050781 29.890625 67.5625 0 19.746094-5.246094 38.210937-14.777344 51.996094-8.945312 12.945312-20.5625 20.070312-32.71875 20.070312-3.324218 0-6.617187-.550781-9.855468-1.617188zm82.320312-17.851562c-.539062 10.929688-9.34375 19.46875-20.09375 19.46875h-17.113281c3.503906-3.332031 6.789062-7.183594 9.800781-11.539062 11.246094-16.269532 17.4375-37.765626 17.4375-60.527344 0-35.097656-14.859375-66.46875-37.085938-80.371094 22.230469-13.707031 37.085938-44.78125 37.085938-79.628906 0-30.328125-10.96875-57.121094-27.621094-72.933594h25.902344c5.757812.042969 11.714844 4.699219 11.714844 12.417969v1.777343c.007812 128.402344.003906 266.5-.027344 271.335938zm0 0"/><path d="m235.871094 139.023438c0 4.144531-3.359375 7.5-7.5 7.5-4.144532 0-7.5-3.355469-7.5-7.5 0-4.140626 3.355468-7.5 7.5-7.5 4.140625 0 7.5 3.359374 7.5 7.5zm0 0"/><path d="m265.871094 189.027344c0 4.140625-3.355469 7.5-7.5 7.5-4.140625 0-7.5-3.359375-7.5-7.5s3.359375-7.5 7.5-7.5c4.144531 0 7.5 3.359375 7.5 7.5zm0 0"/><path d="m133.035156 237.109375c0 4.140625-3.359375 7.5-7.5 7.5-4.144531 0-7.5-3.359375-7.5-7.5s3.355469-7.5 7.5-7.5c4.140625 0 7.5 3.359375 7.5 7.5zm0 0"/><path d="m187.40625 277.390625c0 4.144531-3.359375 7.5-7.5 7.5-4.144531 0-7.5-3.355469-7.5-7.5 0-4.140625 3.355469-7.5 7.5-7.5 4.140625 0 7.5 3.359375 7.5 7.5zm0 0"/><path d="m204.820312 211.574219c0 4.140625-3.355468 7.5-7.5 7.5-4.140624 0-7.5-3.359375-7.5-7.5 0-4.144531 3.359376-7.5 7.5-7.5 4.144532 0 7.5 3.355469 7.5 7.5zm0 0"/><path d="m278.886719 288c0 4.140625-3.359375 7.5-7.5 7.5-4.144531 0-7.5-3.359375-7.5-7.5s3.355469-7.5 7.5-7.5c4.140625 0 7.5 3.359375 7.5 7.5zm0 0"/></svg>