<?xml version="1.0" encoding="iso-8859-1"?>
<!-- Generator: Adobe Illustrator 19.0.0, SVG Export Plug-In . SVG Version: 6.00 Build 0)  -->
<svg version="1.1" id="Capa_1" xmlns="http://www.w3.org/2000/svg" xmlns:xlink="http://www.w3.org/1999/xlink" x="0px" y="0px"
	 viewBox="0 0 511.999 511.999" style="enable-background:new 0 0 511.999 511.999;" xml:space="preserve">
<path style="fill:#DBD9DC;" d="M380.25,223.935v24.048c0,13.282,10.767,24.048,24.048,24.048c13.282,0,24.048-10.767,24.048-24.048
	v-24.048H380.25z"/>
<rect x="380.25" y="223.94" style="fill:#C9C6CA;" width="48.1" height="24.05"/>
<path style="fill:#EDEBED;" d="M203.895,504.5H91.669c-13.282,0-24.048-10.767-24.048-24.048V31.548
	C67.621,18.267,78.388,7.5,91.669,7.5h112.226c13.282,0,24.048,10.767,24.048,24.048v448.903
	C227.944,493.733,217.177,504.5,203.895,504.5z"/>
<circle style="fill:#DBD9DC;" cx="147.78" cy="159.81" r="48.1"/>
<path style="fill:#E6646E;" d="M179.847,79.645h-64.129c-4.427,0-8.016-3.589-8.016-8.016V55.597c0-4.427,3.589-8.016,8.016-8.016
	h64.129c4.427,0,8.016,3.589,8.016,8.016v16.032C187.863,76.056,184.274,79.645,179.847,79.645z"/>
<path style="fill:#DC4655;" d="M179.847,47.581h-32.065v32.065h32.065c4.427,0,8.016-3.589,8.016-8.016V55.597
	C187.863,51.169,184.274,47.581,179.847,47.581z"/>
<path id="SVGCleanerId_0" style="fill:#EDEBED;" d="M436.363,223.935h-64.129c-4.427,0-8.016-3.589-8.016-8.016v-16.032
	c0-4.427,3.589-8.016,8.016-8.016h64.129c4.427,0,8.016,3.589,8.016,8.016v16.032C444.379,220.347,440.79,223.935,436.363,223.935z"
	/>
<g>
	<path id="SVGCleanerId_0_1_" style="fill:#EDEBED;" d="M436.363,223.935h-64.129c-4.427,0-8.016-3.589-8.016-8.016v-16.032
		c0-4.427,3.589-8.016,8.016-8.016h64.129c4.427,0,8.016,3.589,8.016,8.016v16.032C444.379,220.347,440.79,223.935,436.363,223.935z
		"/>
</g>
<g>
	<path style="fill:#DBD9DC;" d="M388.266,215.919v-16.032c0-4.427,3.589-8.016,8.016-8.016h-24.048
		c-4.427,0-8.016,3.589-8.016,8.016v16.032c0,4.427,3.589,8.016,8.016,8.016h24.048
		C391.855,223.935,388.266,220.346,388.266,215.919z"/>
	<path style="fill:#DBD9DC;" d="M91.669,424.339V7.5c-13.282,0-24.048,10.767-24.048,24.048v448.903
		c0,13.282,10.767,24.048,24.048,24.048h112.226c13.282,0,24.048-10.767,24.048-24.048h-80.161
		C116.792,480.452,91.669,455.329,91.669,424.339z"/>
</g>
<path style="fill:#C9C6CA;" d="M147.782,111.71c-18.441,0-34.44,10.391-42.511,25.626c6.71-3.554,14.349-5.586,22.471-5.586
	c26.563,0,48.097,21.534,48.097,48.097c0,8.121-2.031,15.761-5.585,22.471c15.236-8.07,25.626-24.069,25.626-42.511
	C195.879,133.243,174.345,111.71,147.782,111.71z"/>
<circle style="fill:#DBD9DC;" cx="147.78" cy="288.06" r="48.1"/>
<path style="fill:#C9C6CA;" d="M147.782,239.968c-18.441,0-34.44,10.391-42.511,25.626c6.71-3.554,14.349-5.586,22.471-5.586
	c26.563,0,48.097,21.534,48.097,48.097c0,8.121-2.031,15.761-5.585,22.471c15.236-8.07,25.626-24.069,25.626-42.511
	C195.879,261.501,174.345,239.968,147.782,239.968z"/>
<circle style="fill:#DBD9DC;" cx="147.78" cy="416.32" r="48.1"/>
<path style="fill:#C9C6CA;" d="M147.782,368.226c-18.441,0-34.44,10.391-42.511,25.626c6.71-3.554,14.349-5.586,22.471-5.586
	c26.563,0,48.097,21.534,48.097,48.097c0,8.121-2.031,15.761-5.585,22.47c15.236-8.07,25.626-24.069,25.626-42.511
	C195.879,389.759,174.345,368.226,147.782,368.226z"/>
<path d="M147.782,104.21c-30.656,0-55.597,24.94-55.597,55.597s24.94,55.597,55.597,55.597s55.597-24.94,55.597-55.597
	S178.438,104.21,147.782,104.21z M147.782,200.403c-22.385,0-40.597-18.212-40.597-40.597s18.211-40.597,40.597-40.597
	s40.597,18.211,40.597,40.597C188.379,182.191,170.167,200.403,147.782,200.403z"/>
<path d="M131.75,152.307h-0.08c-4.142,0-7.46,3.357-7.46,7.5c0,4.142,3.398,7.5,7.54,7.5s7.5-3.358,7.5-7.5
	C139.25,155.664,135.892,152.307,131.75,152.307z"/>
<path d="M163.814,152.307h-0.08c-4.142,0-7.46,3.357-7.46,7.5c0,4.142,3.398,7.5,7.54,7.5s7.5-3.358,7.5-7.5
	C171.314,155.664,167.957,152.307,163.814,152.307z"/>
<path d="M147.782,232.468c-30.656,0-55.597,24.94-55.597,55.597s24.94,55.597,55.597,55.597s55.597-24.94,55.597-55.597
	S178.438,232.468,147.782,232.468z M147.782,328.661c-22.385,0-40.597-18.211-40.597-40.597c0-22.385,18.211-40.597,40.597-40.597
	s40.597,18.212,40.597,40.597C188.379,310.45,170.167,328.661,147.782,328.661z"/>
<path d="M131.75,280.564h-0.08c-4.142,0-7.46,3.358-7.46,7.5s3.398,7.5,7.54,7.5s7.5-3.358,7.5-7.5S135.892,280.564,131.75,280.564z
	"/>
<path d="M163.814,280.564h-0.08c-4.142,0-7.46,3.358-7.46,7.5s3.398,7.5,7.54,7.5s7.5-3.358,7.5-7.5
	S167.957,280.564,163.814,280.564z"/>
<path d="M147.782,360.726c-30.656,0-55.597,24.941-55.597,55.597s24.94,55.597,55.597,55.597s55.597-24.941,55.597-55.597
	S178.438,360.726,147.782,360.726z M147.782,456.919c-22.385,0-40.597-18.211-40.597-40.597c0-22.385,18.211-40.597,40.597-40.597
	s40.597,18.212,40.597,40.597C188.379,438.708,170.167,456.919,147.782,456.919z"/>
<path d="M131.75,408.822h-0.08c-4.142,0-7.46,3.358-7.46,7.5c0,4.143,3.398,7.5,7.54,7.5s7.5-3.357,7.5-7.5
	C139.25,412.181,135.892,408.822,131.75,408.822z"/>
<path d="M163.814,408.822h-0.08c-4.142,0-7.46,3.358-7.46,7.5c0,4.143,3.398,7.5,7.54,7.5s7.5-3.357,7.5-7.5
	C171.314,412.181,167.957,408.822,163.814,408.822z"/>
<path d="M179.847,87.146c8.556,0,15.516-6.961,15.516-15.517V55.597c0-8.556-6.96-15.516-15.516-15.516h-64.129
	c-8.556,0-15.516,6.96-15.516,15.516v16.032c0,8.556,6.96,15.517,15.516,15.517C115.718,87.146,179.847,87.146,179.847,87.146z
	 M180.363,55.597v16.032c0,0.285-0.231,0.517-0.516,0.517h-24.564V55.081h24.564C180.131,55.081,180.363,55.312,180.363,55.597z
	 M115.202,71.629V55.597c0-0.285,0.231-0.516,0.516-0.516h24.564v17.065h-24.564C115.433,72.146,115.202,71.914,115.202,71.629z"/>
<path d="M436.363,184.371h-8.532V151.79c0-4.142-3.358-7.5-7.5-7.5s-7.5,3.358-7.5,7.5v32.581h-17.064V151.79
	c0-4.142-3.358-7.5-7.5-7.5s-7.5,3.358-7.5,7.5v32.581h-8.532c-8.556,0-15.516,6.96-15.516,15.516v16.032
	c0,8.556,6.96,15.516,15.516,15.516h0.516v16.548c0,14.812,10.262,27.265,24.048,30.64v9.44c0,17.965-14.616,32.581-32.581,32.581
	s-32.581-14.616-32.581-32.581V135.758c0-12.976-10.557-23.532-23.532-23.532s-23.532,10.557-23.532,23.532v304.613
	c0,4.705-3.828,8.532-8.532,8.532s-8.532-3.828-8.532-8.532V55.597c0-12.976-10.557-23.532-23.533-23.532h-8.532v-0.516
	C235.443,14.152,221.291,0,203.895,0H91.669C74.273,0,60.121,14.152,60.121,31.548v448.903c0,17.396,14.152,31.548,31.548,31.548
	h112.226c17.396,0,31.548-14.153,31.548-31.548V103.69c0-4.142-3.358-7.5-7.5-7.5s-7.5,3.358-7.5,7.5v376.761
	c0,9.125-7.423,16.548-16.548,16.548H91.669c-9.125,0-16.548-7.424-16.548-16.548V31.548C75.121,22.424,82.544,15,91.669,15h112.226
	c9.125,0,16.548,7.424,16.548,16.548v40.084c0,4.142,3.358,7.5,7.5,7.5s7.5-3.358,7.5-7.5V47.064h8.532
	c4.705,0,8.533,3.828,8.533,8.532V440.37c0,12.976,10.557,23.532,23.532,23.532s23.532-10.556,23.532-23.532V135.758
	c0-4.704,3.828-8.532,8.532-8.532s8.532,3.828,8.532,8.532v152.307c0,26.236,21.345,47.581,47.581,47.581
	s47.581-21.345,47.581-47.581v-9.44c13.786-3.375,24.048-15.829,24.048-30.64v-16.548h0.516c8.556,0,15.516-6.96,15.516-15.516
	v-16.032C451.879,191.332,444.918,184.371,436.363,184.371z M420.847,247.984c0,9.125-7.423,16.548-16.548,16.548
	s-16.548-7.424-16.548-16.548v-16.548h33.097L420.847,247.984L420.847,247.984z M436.879,215.919c0,0.285-0.231,0.516-0.516,0.516
	h-64.129c-0.285,0-0.516-0.231-0.516-0.516v-16.032c0-0.285,0.231-0.516,0.516-0.516h64.129c0.285,0,0.516,0.231,0.516,0.516
	V215.919z"/>
<g>
</g>
<g>
</g>
<g>
</g>
<g>
</g>
<g>
</g>
<g>
</g>
<g>
</g>
<g>
</g>
<g>
</g>
<g>
</g>
<g>
</g>
<g>
</g>
<g>
</g>
<g>
</g>
<g>
</g>
</svg>
